<svg width="100" height="100" viewBox="0 0 16 16" fill="none" xmlns="http://www.w3.org/2000/svg">
<g clip-path="url(#clip0_15_120)">
<g clip-path="url(#clip1_15_120)">
<path fill-rule="evenodd" clip-rule="evenodd" d="M10.8078 11.8741C10.9951 11.1893 10.6315 9.78149 10.6315 9.78149C10.6315 9.78149 10.3679 10.9284 9.95587 11.3523C9.6044 11.7139 9.17379 11.9646 8.55623 12.0306C9.06114 11.7853 9.40839 11.274 9.40839 10.6829C9.40839 9.85315 8.72415 9.18048 7.8801 9.18048C7.03606 9.18048 6.35179 9.85315 6.35179 10.6829C6.35179 10.9095 6.40285 11.1244 6.49425 11.3171C5.96632 10.8964 5.88332 10.2222 5.88332 10.2222C5.88332 10.2222 5.29382 12.6697 6.91814 13.8209C8.54243 14.9722 11.7243 13.9827 11.7243 13.9827C11.7243 13.9827 7.17082 17.1866 3.79659 13.6995C0.889961 10.6956 3.03795 6.74086 3.03795 6.74086C3.03795 6.74086 2.94519 7.10772 2.94519 7.5336C2.94519 7.95947 3.17609 8.28349 3.17609 8.28349C3.17609 8.28349 3.86486 6.83169 4.40089 6.24127C4.90821 5.6825 5.54416 5.2293 6.09346 4.83786C6.51628 4.53654 6.88776 4.27181 7.10962 4.02369C8.33164 2.65727 7.58236 0.168396 7.58236 0.168396C7.58236 0.168396 8.9599 1.3828 9.34447 2.95122C9.49107 3.54909 9.39675 4.22932 9.31244 4.83762C9.17554 5.82514 9.06491 6.62309 10.0539 6.57131C11.652 6.48761 10.2633 4.02369 10.2633 4.02369C10.2633 4.02369 13.8885 5.92908 13.6176 9.26149C13.3468 12.594 9.65511 13.3515 9.65511 13.3515C9.65511 13.3515 10.6204 12.5589 10.8078 11.8741Z" fill="#E90000"/>
</g>
</g>
<defs>
<clipPath id="clip0_15_120">
<rect width="16" height="16" fill="white"/>
</clipPath>
<clipPath id="clip1_15_120">
<rect width="11.7895" height="16" fill="white" transform="translate(2.10522)"/>
</clipPath>
</defs>
</svg>
