<svg width="100" height="100" viewBox="0 0 16 16" fill="none" xmlns="http://www.w3.org/2000/svg">
<g clip-path="url(#clip0_15_57)">
<g clip-path="url(#clip1_15_57)">
<path fill-rule="evenodd" clip-rule="evenodd" d="M5.58476 14.5666C7.92861 14.5666 9.93524 13.264 10.7636 11.4173C10.7738 11.3948 7.43773 12.2843 7.54411 11.9699C7.59161 11.8295 9.63661 11.0824 11.1265 10.211C11.9829 9.71019 12.3772 8.64997 12.3772 8.64997C12.3772 8.64997 10.9345 9.35044 10.2051 9.52813C8.73539 9.88625 7.44161 9.84769 7.44161 9.81038C7.44161 9.72969 9.5899 9.3215 12.5758 7.50197C13.9802 6.64612 14.3617 5.17193 14.3617 5.17193C14.3617 5.17193 12.8176 6.09168 11.8842 6.39534C9.67055 7.11543 7.65048 7.33244 7.65048 7.235C7.65048 7.02637 9.42821 6.53753 11.313 5.62424C12.293 5.1494 13.1417 4.52902 14.1253 3.83911C15.7346 2.71033 16 0.699951 16 0.699951C16 0.699951 14.4127 1.72371 13.6382 2.06369C10.4419 3.46655 7.61967 4.20243 5.58476 4.36174C2.51301 4.60224 0 6.74547 0 9.52813C0 12.3108 2.50038 14.5666 5.58476 14.5666Z" fill="#749BEF"/>
</g>
</g>
<defs>
<clipPath id="clip0_15_57">
<rect width="16" height="16" fill="white"/>
</clipPath>
<clipPath id="clip1_15_57">
<rect width="16" height="15" fill="white" transform="translate(0 0.5)"/>
</clipPath>
</defs>
</svg>
