<svg width="14" height="15" viewBox="0 0 14 15" fill="none" xmlns="http://www.w3.org/2000/svg">
<path fill-rule="evenodd" clip-rule="evenodd" d="M2.24725 13.0851C2.19332 13.0348 2.13998 12.9835 2.08726 12.9313C-0.695755 10.1731 -0.695754 5.70103 2.08726 2.94279C4.87027 0.184525 13.738 0 13.738 0C13.738 0 14.9485 10.1731 12.1655 12.9313C9.69378 15.381 5.85821 15.655 3.08138 13.7535L5.31885 11.0321L8.89565 10.2668L5.97593 9.97748L7.83145 8.10501L9.94359 7.64643L8.27343 7.15622L9.94359 4.1701L7.56796 6.81106L6.65057 5.52802L6.97351 7.64643L5.31885 9.49518L4.55184 7.15619V10.2668L2.24725 13.0851Z" fill="#ACB9C1"/>
</svg>
